<mxfile host="app.diagrams.net" modified="2022-04-12T17:04:14.292Z" agent="5.0 (Windows NT 10.0; Win64; x64) AppleWebKit/537.36 (KHTML, like Gecko) Chrome/100.0.4896.75 Safari/537.36" etag="5c2WOrbw02bf9b-ySKLF" version="17.4.3" type="github">
  <diagram id="XNnjfjyZ5YZ3sG4YYRAw" name="Page-1">
    <mxGraphModel dx="1240" dy="689" grid="1" gridSize="10" guides="1" tooltips="1" connect="1" arrows="1" fold="1" page="1" pageScale="1" pageWidth="827" pageHeight="1169" math="0" shadow="0">
      <root>
        <mxCell id="0" />
        <mxCell id="1" parent="0" />
        <mxCell id="itlGMNqaQhyOA7Npl8a3-2" style="edgeStyle=orthogonalEdgeStyle;rounded=0;orthogonalLoop=1;jettySize=auto;html=1;exitX=0.5;exitY=1;exitDx=0;exitDy=0;entryX=0.5;entryY=0;entryDx=0;entryDy=0;" edge="1" parent="1" target="itlGMNqaQhyOA7Npl8a3-3">
          <mxGeometry relative="1" as="geometry">
            <mxPoint x="420" y="150" as="targetPoint" />
            <mxPoint x="420" y="109.99999999999989" as="sourcePoint" />
          </mxGeometry>
        </mxCell>
        <mxCell id="itlGMNqaQhyOA7Npl8a3-7" style="edgeStyle=orthogonalEdgeStyle;rounded=0;orthogonalLoop=1;jettySize=auto;html=1;entryX=0.528;entryY=-0.024;entryDx=0;entryDy=0;entryPerimeter=0;" edge="1" parent="1" source="itlGMNqaQhyOA7Npl8a3-3" target="itlGMNqaQhyOA7Npl8a3-6">
          <mxGeometry relative="1" as="geometry">
            <mxPoint x="420" y="230" as="targetPoint" />
          </mxGeometry>
        </mxCell>
        <mxCell id="itlGMNqaQhyOA7Npl8a3-3" value="x = 1.0" style="rounded=0;whiteSpace=wrap;html=1;" vertex="1" parent="1">
          <mxGeometry x="360" y="160" width="120" height="30" as="geometry" />
        </mxCell>
        <mxCell id="itlGMNqaQhyOA7Npl8a3-8" style="edgeStyle=orthogonalEdgeStyle;rounded=0;orthogonalLoop=1;jettySize=auto;html=1;" edge="1" parent="1" source="itlGMNqaQhyOA7Npl8a3-6">
          <mxGeometry relative="1" as="geometry">
            <mxPoint x="420" y="340" as="targetPoint" />
            <Array as="points">
              <mxPoint x="420" y="320" />
              <mxPoint x="420" y="320" />
            </Array>
          </mxGeometry>
        </mxCell>
        <mxCell id="itlGMNqaQhyOA7Npl8a3-6" value="&lt;p class=&quot;MsoNormal&quot;&gt;&lt;div style=&quot;text-align: justify&quot;&gt;&lt;span&gt;Y = e&lt;/span&gt;&lt;sup&gt;3x&amp;nbsp;&lt;/sup&gt;&lt;span style=&quot;text-align: center&quot;&gt;+ (x + (x)&lt;/span&gt;&lt;sup style=&quot;text-align: center&quot;&gt;1/2&lt;/sup&gt;&lt;span style=&quot;text-align: center&quot;&gt;)&lt;/span&gt;&lt;sup style=&quot;text-align: center&quot;&gt;1/2&lt;/sup&gt;&lt;/div&gt;&lt;/p&gt;" style="rounded=0;whiteSpace=wrap;html=1;align=center;" vertex="1" parent="1">
          <mxGeometry x="320" y="240" width="190" height="40" as="geometry" />
        </mxCell>
        <mxCell id="itlGMNqaQhyOA7Npl8a3-14" style="edgeStyle=orthogonalEdgeStyle;rounded=0;orthogonalLoop=1;jettySize=auto;html=1;entryX=0.5;entryY=0;entryDx=0;entryDy=0;" edge="1" parent="1" source="itlGMNqaQhyOA7Npl8a3-9" target="itlGMNqaQhyOA7Npl8a3-13">
          <mxGeometry relative="1" as="geometry" />
        </mxCell>
        <mxCell id="itlGMNqaQhyOA7Npl8a3-9" value="x = x+0.4" style="rounded=0;whiteSpace=wrap;html=1;" vertex="1" parent="1">
          <mxGeometry x="360" y="450" width="120" height="30" as="geometry" />
        </mxCell>
        <mxCell id="itlGMNqaQhyOA7Npl8a3-12" style="edgeStyle=orthogonalEdgeStyle;rounded=0;orthogonalLoop=1;jettySize=auto;html=1;entryX=0.5;entryY=0;entryDx=0;entryDy=0;" edge="1" parent="1" source="itlGMNqaQhyOA7Npl8a3-11" target="itlGMNqaQhyOA7Npl8a3-9">
          <mxGeometry relative="1" as="geometry" />
        </mxCell>
        <mxCell id="itlGMNqaQhyOA7Npl8a3-11" value="x,y" style="shape=document;whiteSpace=wrap;html=1;boundedLbl=1;" vertex="1" parent="1">
          <mxGeometry x="360" y="340" width="120" height="60" as="geometry" />
        </mxCell>
        <mxCell id="itlGMNqaQhyOA7Npl8a3-15" style="edgeStyle=orthogonalEdgeStyle;rounded=0;orthogonalLoop=1;jettySize=auto;html=1;exitX=0;exitY=0.5;exitDx=0;exitDy=0;" edge="1" parent="1" source="itlGMNqaQhyOA7Npl8a3-13">
          <mxGeometry relative="1" as="geometry">
            <mxPoint x="420" y="210" as="targetPoint" />
            <Array as="points">
              <mxPoint x="290" y="570" />
              <mxPoint x="290" y="210" />
            </Array>
          </mxGeometry>
        </mxCell>
        <mxCell id="itlGMNqaQhyOA7Npl8a3-17" style="edgeStyle=orthogonalEdgeStyle;rounded=0;orthogonalLoop=1;jettySize=auto;html=1;" edge="1" parent="1" source="itlGMNqaQhyOA7Npl8a3-13">
          <mxGeometry relative="1" as="geometry">
            <mxPoint x="540" y="569.9999999999999" as="targetPoint" />
          </mxGeometry>
        </mxCell>
        <mxCell id="itlGMNqaQhyOA7Npl8a3-13" value="x &amp;lt;=5" style="rhombus;whiteSpace=wrap;html=1;" vertex="1" parent="1">
          <mxGeometry x="380" y="530" width="80" height="80" as="geometry" />
        </mxCell>
        <mxCell id="itlGMNqaQhyOA7Npl8a3-16" value="+" style="text;html=1;align=center;verticalAlign=middle;resizable=0;points=[];autosize=1;strokeColor=none;fillColor=none;" vertex="1" parent="1">
          <mxGeometry x="330" y="550" width="20" height="20" as="geometry" />
        </mxCell>
        <mxCell id="itlGMNqaQhyOA7Npl8a3-18" value="-" style="text;html=1;align=center;verticalAlign=middle;resizable=0;points=[];autosize=1;strokeColor=none;fillColor=none;" vertex="1" parent="1">
          <mxGeometry x="500" y="550" width="20" height="20" as="geometry" />
        </mxCell>
        <mxCell id="itlGMNqaQhyOA7Npl8a3-19" value="Конец" style="ellipse;whiteSpace=wrap;html=1;" vertex="1" parent="1">
          <mxGeometry x="540" y="545" width="120" height="50" as="geometry" />
        </mxCell>
        <mxCell id="itlGMNqaQhyOA7Npl8a3-20" value="Начало" style="ellipse;whiteSpace=wrap;html=1;" vertex="1" parent="1">
          <mxGeometry x="360" y="60" width="120" height="50" as="geometry" />
        </mxCell>
      </root>
    </mxGraphModel>
  </diagram>
</mxfile>
